<svg xmlns="http://www.w3.org/2000/svg" stroke-linecap="round" stroke-linejoin="round" viewBox="-2 0 42 8">
  <g fill="none">
    <path stroke="#000" stroke-width="2.8" d="M0 2h1v4M0 6h2"/>
    <path stroke="#fff1e8" d="M0 2h1v4M0 6h2"/>
  </g>
  <g fill="none">
    <path stroke="#000" stroke-width="2.8" d="M4.8 2h1v4m-1 0h2"/>
    <path stroke="#fff1e8" d="M4.8 2h1v4m-1 0h2"/>
  </g>
  <g fill="none">
    <path stroke="#000" stroke-width="2.8" d="M9.6 3h2m-1 0v3"/>
    <path stroke="#fff1e8" d="M9.6 3h2m-1 0v3"/>
  </g>
  <g fill="none">
    <path stroke="#000" stroke-width="2.8" d="M16.4 3v3h-2m0-3v1h2"/>
    <path stroke="#fff1e8" d="M16.4 3v3h-2m0-3v1h2"/>
  </g>
  <g fill="none">
    <path stroke="#000" stroke-width="2.8" d="M19.2 3v3m2-3v3m-2-1h2"/>
    <path stroke="#fff1e8" d="M19.2 3v3m2-3v3m-2-1h2"/>
  </g>
  <g fill="none">
    <path stroke="#000" stroke-width="2.8" d="M26 3v3h-2m0-3v1h2"/>
    <path stroke="#fff1e8" d="M26 3v3h-2m0-3v1h2"/>
  </g>
  <g fill="none">
    <path stroke="#000" stroke-width="2.8" d="M28.8 6V3h2v2h-2"/>
    <path stroke="#fff1e8" d="M28.8 6V3h2v2h-2"/>
  </g>
  <g fill="none">
    <path stroke="#000" stroke-width="2.8" d="M35.6 3h-2v3h2m-1-1.5h-1"/>
    <path stroke="#fff1e8" d="M35.6 3h-2v3h2m-1-1.5h-1"/>
  </g>
</svg>
